# xmcd
#
# Track frame offsets: 
#        183
#        15283
#        32658
#        51220
#
# Disc length: 930 seconds
#
# Revision: 2
# Processed by: cddbd v1.5.2PL0 Copyright (c) Steve Scherf et al.
# Submitted via: ExactAudioCopyFreeDBPlugin 1.0
#
DISCID=2303a004
DTITLE=John Lee Hooker - I´m In The Mood
DYEAR=1989
DGENRE=Blues
TTITLE0=John Lee Hooker feat. Bonnie Rait - I´m In The Mood
TTITLE1=John Lee Hooker feat. Carlos Santana and Band - The Healer
TTITLE2=John Lee Hooker  - No Substitute
TTITLE3=Rockin´ Chair
EXTD=
EXTT0=
EXTT1=
EXTT2=
EXTT3=
PLAYORDER=
